<mxfile host="Electron" agent="Mozilla/5.0 (Windows NT 10.0; Win64; x64) AppleWebKit/537.36 (KHTML, like Gecko) draw.io/25.0.2 Chrome/128.0.6613.186 Electron/32.2.5 Safari/537.36" version="25.0.2">
  <diagram name="Página-1" id="veCjRKkKvRt-dCM9Uo-P">
    <mxGraphModel dx="1476" dy="805" grid="1" gridSize="10" guides="1" tooltips="1" connect="1" arrows="1" fold="1" page="1" pageScale="1" pageWidth="827" pageHeight="1169" math="0" shadow="0">
      <root>
        <mxCell id="0" />
        <mxCell id="1" parent="0" />
        <mxCell id="W5SD1ygnRIAWHCPiCztK-1" value="" style="rounded=0;orthogonalLoop=1;jettySize=auto;html=1;endArrow=halfCircle;endFill=0;endSize=6;strokeWidth=1;sketch=0;fontSize=12;curved=1;exitX=0.5;exitY=0;exitDx=0;exitDy=0;fillColor=#030303;strokeColor=#030303;movable=1;resizable=1;rotatable=1;deletable=1;editable=1;locked=0;connectable=1;" parent="1" edge="1">
          <mxGeometry relative="1" as="geometry">
            <mxPoint x="457.1" y="381" as="sourcePoint" />
            <mxPoint x="456.85" y="321.5" as="targetPoint" />
            <Array as="points" />
          </mxGeometry>
        </mxCell>
        <mxCell id="W5SD1ygnRIAWHCPiCztK-2" value="" style="html=1;dropTarget=0;whiteSpace=wrap;fillColor=#1ba1e2;fontColor=#ffffff;strokeColor=#00060A;movable=1;resizable=1;rotatable=1;deletable=1;editable=1;locked=0;connectable=1;" parent="1" vertex="1">
          <mxGeometry x="149" y="389" width="530" height="470" as="geometry" />
        </mxCell>
        <mxCell id="W5SD1ygnRIAWHCPiCztK-3" value="" style="shape=module;jettyWidth=8;jettyHeight=4;fillColor=#1ba1e2;fontColor=#ffffff;strokeColor=#006EAF;movable=1;resizable=1;rotatable=1;deletable=1;editable=1;locked=0;connectable=1;" parent="W5SD1ygnRIAWHCPiCztK-2" vertex="1">
          <mxGeometry x="1" width="20" height="20" relative="1" as="geometry">
            <mxPoint x="-27" y="7" as="offset" />
          </mxGeometry>
        </mxCell>
        <mxCell id="W5SD1ygnRIAWHCPiCztK-4" value="" style="group;movable=1;resizable=1;rotatable=1;deletable=1;editable=1;locked=0;connectable=1;" parent="1" vertex="1" connectable="0">
          <mxGeometry x="512" y="639" width="150" height="80" as="geometry" />
        </mxCell>
        <mxCell id="W5SD1ygnRIAWHCPiCztK-5" value="«component»&lt;br&gt;&lt;b&gt;Planning&lt;/b&gt;" style="html=1;dropTarget=0;whiteSpace=wrap;fillColor=#1ba1e2;fontColor=#ffffff;strokeColor=#000000;movable=1;resizable=1;rotatable=1;deletable=1;editable=1;locked=0;connectable=1;" parent="W5SD1ygnRIAWHCPiCztK-4" vertex="1">
          <mxGeometry y="10" width="150" height="70" as="geometry" />
        </mxCell>
        <mxCell id="W5SD1ygnRIAWHCPiCztK-6" value="" style="shape=module;jettyWidth=8;jettyHeight=4;fillColor=#1ba1e2;fontColor=#ffffff;strokeColor=#006EAF;movable=1;resizable=1;rotatable=1;deletable=1;editable=1;locked=0;connectable=1;" parent="W5SD1ygnRIAWHCPiCztK-5" vertex="1">
          <mxGeometry x="1" width="20" height="20" relative="1" as="geometry">
            <mxPoint x="-27" y="7" as="offset" />
          </mxGeometry>
        </mxCell>
        <mxCell id="W5SD1ygnRIAWHCPiCztK-9" value="" style="rounded=0;whiteSpace=wrap;html=1;fillColor=#1ba1e2;fontColor=#ffffff;strokeColor=#000000;rotation=-90;movable=1;resizable=1;rotatable=1;deletable=1;editable=1;locked=0;connectable=1;" parent="W5SD1ygnRIAWHCPiCztK-4" vertex="1">
          <mxGeometry x="108.25" y="2.5" width="10" height="15" as="geometry" />
        </mxCell>
        <mxCell id="W5SD1ygnRIAWHCPiCztK-10" value="&lt;span style=&quot;color: rgb(255, 255, 255);&quot;&gt;«component»&lt;/span&gt;&lt;br style=&quot;color: rgb(255, 255, 255);&quot;&gt;&lt;span style=&quot;color: rgb(255, 255, 255);&quot;&gt;«C4 system»&lt;/span&gt;&lt;br style=&quot;color: rgb(255, 255, 255);&quot;&gt;&lt;b style=&quot;color: rgb(255, 255, 255);&quot;&gt;Healthcare System&lt;/b&gt;" style="text;html=1;align=center;verticalAlign=middle;whiteSpace=wrap;rounded=0;movable=1;resizable=1;rotatable=1;deletable=1;editable=1;locked=0;connectable=1;" parent="1" vertex="1">
          <mxGeometry x="323.5" y="399" width="150" height="45" as="geometry" />
        </mxCell>
        <mxCell id="W5SD1ygnRIAWHCPiCztK-11" value="" style="group;movable=1;resizable=1;rotatable=1;deletable=1;editable=1;locked=0;connectable=1;" parent="1" vertex="1" connectable="0">
          <mxGeometry x="431" y="459" width="157.5" height="91" as="geometry" />
        </mxCell>
        <mxCell id="W5SD1ygnRIAWHCPiCztK-12" value="" style="group;movable=1;resizable=1;rotatable=1;deletable=1;editable=1;locked=0;connectable=1;" parent="W5SD1ygnRIAWHCPiCztK-11" vertex="1" connectable="0">
          <mxGeometry y="1" width="157.5" height="90" as="geometry" />
        </mxCell>
        <mxCell id="W5SD1ygnRIAWHCPiCztK-13" value="«component»&lt;br&gt;&lt;b&gt;MDBackoffice&lt;/b&gt;" style="html=1;dropTarget=0;whiteSpace=wrap;fillColor=#1ba1e2;fontColor=#ffffff;strokeColor=#000000;movable=1;resizable=1;rotatable=1;deletable=1;editable=1;locked=0;connectable=1;" parent="W5SD1ygnRIAWHCPiCztK-12" vertex="1">
          <mxGeometry y="10" width="150" height="70" as="geometry" />
        </mxCell>
        <mxCell id="W5SD1ygnRIAWHCPiCztK-14" value="" style="shape=module;jettyWidth=8;jettyHeight=4;fillColor=#1ba1e2;fontColor=#ffffff;strokeColor=#006EAF;movable=1;resizable=1;rotatable=1;deletable=1;editable=1;locked=0;connectable=1;" parent="W5SD1ygnRIAWHCPiCztK-13" vertex="1">
          <mxGeometry x="1" width="20" height="20" relative="1" as="geometry">
            <mxPoint x="-27" y="7" as="offset" />
          </mxGeometry>
        </mxCell>
        <mxCell id="W5SD1ygnRIAWHCPiCztK-15" value="" style="rounded=0;whiteSpace=wrap;html=1;fillColor=#1ba1e2;fontColor=#ffffff;strokeColor=#000000;movable=1;resizable=1;rotatable=1;deletable=1;editable=1;locked=0;connectable=1;" parent="W5SD1ygnRIAWHCPiCztK-12" vertex="1">
          <mxGeometry x="127" y="5" width="12.5" height="10" as="geometry" />
        </mxCell>
        <mxCell id="W5SD1ygnRIAWHCPiCztK-16" value="" style="fontStyle=0;labelPosition=right;verticalLabelPosition=middle;align=left;verticalAlign=middle;spacingLeft=2;fillColor=#1BA1E2;strokeColor=#030303;movable=1;resizable=1;rotatable=1;deletable=1;editable=1;locked=0;connectable=1;" parent="W5SD1ygnRIAWHCPiCztK-12" vertex="1">
          <mxGeometry x="21.5" y="4" width="10" height="10" as="geometry" />
        </mxCell>
        <mxCell id="W5SD1ygnRIAWHCPiCztK-17" value="" style="rounded=0;whiteSpace=wrap;html=1;fillColor=#1ba1e2;fontColor=#ffffff;strokeColor=#000000;movable=1;resizable=1;rotatable=1;deletable=1;editable=1;locked=0;connectable=1;" parent="W5SD1ygnRIAWHCPiCztK-12" vertex="1">
          <mxGeometry x="17" y="75" width="12.5" height="10" as="geometry" />
        </mxCell>
        <mxCell id="W5SD1ygnRIAWHCPiCztK-18" value="" style="rounded=0;whiteSpace=wrap;html=1;fillColor=#1ba1e2;fontColor=#ffffff;strokeColor=#000000;rotation=90;movable=1;resizable=1;rotatable=1;deletable=1;editable=1;locked=0;connectable=1;" parent="W5SD1ygnRIAWHCPiCztK-12" vertex="1">
          <mxGeometry x="145" y="40" width="12.5" height="10" as="geometry" />
        </mxCell>
        <mxCell id="W5SD1ygnRIAWHCPiCztK-19" value="" style="rounded=0;whiteSpace=wrap;html=1;fillColor=#1ba1e2;fontColor=#ffffff;strokeColor=#000000;rotation=90;movable=1;resizable=1;rotatable=1;deletable=1;editable=1;locked=0;connectable=1;" parent="W5SD1ygnRIAWHCPiCztK-12" vertex="1">
          <mxGeometry x="-6.5" y="40" width="12.5" height="10" as="geometry" />
        </mxCell>
        <mxCell id="W5SD1ygnRIAWHCPiCztK-20" value="" style="rounded=0;orthogonalLoop=1;jettySize=auto;html=1;endArrow=halfCircle;endFill=0;endSize=6;strokeWidth=1;sketch=0;fontSize=12;curved=1;exitX=0.5;exitY=0;exitDx=0;exitDy=0;fillColor=#030303;strokeColor=#030303;movable=1;resizable=1;rotatable=1;deletable=1;editable=1;locked=0;connectable=1;" parent="W5SD1ygnRIAWHCPiCztK-12" edge="1">
          <mxGeometry relative="1" as="geometry">
            <mxPoint x="78.60000000000002" y="-79" as="sourcePoint" />
            <mxPoint x="78.35000000000002" y="-138.5" as="targetPoint" />
            <Array as="points" />
          </mxGeometry>
        </mxCell>
        <mxCell id="W5SD1ygnRIAWHCPiCztK-21" style="edgeStyle=orthogonalEdgeStyle;rounded=0;orthogonalLoop=1;jettySize=auto;html=1;exitX=0.5;exitY=0;exitDx=0;exitDy=0;entryX=0.5;entryY=1;entryDx=0;entryDy=0;endArrow=none;endFill=0;strokeColor=#000000;movable=1;resizable=1;rotatable=1;deletable=1;editable=1;locked=0;connectable=1;" parent="W5SD1ygnRIAWHCPiCztK-12" source="W5SD1ygnRIAWHCPiCztK-22" target="W5SD1ygnRIAWHCPiCztK-23" edge="1">
          <mxGeometry relative="1" as="geometry">
            <Array as="points">
              <mxPoint x="78" y="-69" />
            </Array>
            <mxPoint x="78.87" y="-101" as="sourcePoint" />
            <mxPoint x="78.87" y="-68" as="targetPoint" />
          </mxGeometry>
        </mxCell>
        <mxCell id="W5SD1ygnRIAWHCPiCztK-22" value="" style="fontStyle=0;labelPosition=right;verticalLabelPosition=middle;align=left;verticalAlign=middle;spacingLeft=2;fillColor=#1BA1E2;strokeColor=#030303;movable=1;resizable=1;rotatable=1;deletable=1;editable=1;locked=0;connectable=1;" parent="W5SD1ygnRIAWHCPiCztK-12" vertex="1">
          <mxGeometry x="74" y="4" width="10" height="10" as="geometry" />
        </mxCell>
        <mxCell id="W5SD1ygnRIAWHCPiCztK-23" value="" style="fontStyle=0;labelPosition=right;verticalLabelPosition=middle;align=left;verticalAlign=middle;spacingLeft=2;fillColor=#1BA1E2;strokeColor=#030303;movable=1;resizable=1;rotatable=1;deletable=1;editable=1;locked=0;connectable=1;" parent="W5SD1ygnRIAWHCPiCztK-12" vertex="1">
          <mxGeometry x="73.5" y="-79" width="10" height="10" as="geometry" />
        </mxCell>
        <mxCell id="W5SD1ygnRIAWHCPiCztK-24" value="" style="ellipse;whiteSpace=wrap;html=1;align=center;aspect=fixed;fillColor=none;strokeColor=none;resizable=1;perimeter=centerPerimeter;rotatable=1;allowArrows=0;points=[];outlineConnect=1;movable=1;deletable=1;editable=1;locked=0;connectable=1;" parent="1" vertex="1">
          <mxGeometry x="509" y="569" width="10" height="10" as="geometry" />
        </mxCell>
        <mxCell id="W5SD1ygnRIAWHCPiCztK-25" value="" style="ellipse;whiteSpace=wrap;html=1;align=center;aspect=fixed;fillColor=none;strokeColor=none;resizable=1;perimeter=centerPerimeter;rotatable=1;allowArrows=0;points=[];outlineConnect=1;movable=1;deletable=1;editable=1;locked=0;connectable=1;" parent="1" vertex="1">
          <mxGeometry x="539" y="589" width="10" height="10" as="geometry" />
        </mxCell>
        <mxCell id="W5SD1ygnRIAWHCPiCztK-26" style="edgeStyle=orthogonalEdgeStyle;rounded=0;orthogonalLoop=1;jettySize=auto;html=1;exitX=0.5;exitY=1;exitDx=0;exitDy=0;entryX=0.5;entryY=0;entryDx=0;entryDy=0;strokeColor=#000000;endArrow=none;endFill=0;movable=1;resizable=1;rotatable=1;deletable=1;editable=1;locked=0;connectable=1;" parent="1" source="W5SD1ygnRIAWHCPiCztK-27" target="W5SD1ygnRIAWHCPiCztK-31" edge="1">
          <mxGeometry relative="1" as="geometry">
            <Array as="points">
              <mxPoint x="280" y="359" />
              <mxPoint x="279" y="359" />
              <mxPoint x="279" y="435" />
            </Array>
          </mxGeometry>
        </mxCell>
        <mxCell id="W5SD1ygnRIAWHCPiCztK-27" value="" style="rounded=0;whiteSpace=wrap;html=1;fillColor=#1ba1e2;fontColor=#ffffff;strokeColor=#000000;movable=1;resizable=1;rotatable=1;deletable=1;editable=1;locked=0;connectable=1;" parent="1" vertex="1">
          <mxGeometry x="272" y="381" width="15" height="10" as="geometry" />
        </mxCell>
        <mxCell id="W5SD1ygnRIAWHCPiCztK-28" value="" style="group;movable=1;resizable=1;rotatable=1;deletable=1;editable=1;locked=0;connectable=1;" parent="1" vertex="1" connectable="0">
          <mxGeometry x="204.25" y="469" width="150" height="80" as="geometry" />
        </mxCell>
        <mxCell id="W5SD1ygnRIAWHCPiCztK-29" value="«component»&lt;br&gt;&lt;b&gt;Visualization&lt;/b&gt;" style="html=1;dropTarget=0;whiteSpace=wrap;fillColor=#1ba1e2;fontColor=#ffffff;strokeColor=#000000;movable=1;resizable=1;rotatable=1;deletable=1;editable=1;locked=0;connectable=1;" parent="W5SD1ygnRIAWHCPiCztK-28" vertex="1">
          <mxGeometry width="150" height="70" as="geometry" />
        </mxCell>
        <mxCell id="W5SD1ygnRIAWHCPiCztK-30" value="" style="shape=module;jettyWidth=8;jettyHeight=4;fillColor=#1ba1e2;fontColor=#ffffff;strokeColor=#006EAF;movable=1;resizable=1;rotatable=1;deletable=1;editable=1;locked=0;connectable=1;" parent="W5SD1ygnRIAWHCPiCztK-29" vertex="1">
          <mxGeometry x="1" width="20" height="20" relative="1" as="geometry">
            <mxPoint x="-27" y="7" as="offset" />
          </mxGeometry>
        </mxCell>
        <mxCell id="W5SD1ygnRIAWHCPiCztK-31" value="" style="rounded=0;whiteSpace=wrap;html=1;fillColor=#1ba1e2;fontColor=#ffffff;strokeColor=#000000;movable=1;resizable=1;rotatable=1;deletable=1;editable=1;locked=0;connectable=1;" parent="W5SD1ygnRIAWHCPiCztK-28" vertex="1">
          <mxGeometry x="68.5" y="-3" width="12.5" height="10" as="geometry" />
        </mxCell>
        <mxCell id="W5SD1ygnRIAWHCPiCztK-32" value="" style="rounded=0;whiteSpace=wrap;html=1;fillColor=#1ba1e2;fontColor=#ffffff;strokeColor=#000000;movable=1;resizable=1;rotatable=1;deletable=1;editable=1;locked=0;connectable=1;" parent="W5SD1ygnRIAWHCPiCztK-28" vertex="1">
          <mxGeometry x="68" y="65" width="12.5" height="10" as="geometry" />
        </mxCell>
        <mxCell id="W5SD1ygnRIAWHCPiCztK-33" style="edgeStyle=orthogonalEdgeStyle;rounded=0;orthogonalLoop=1;jettySize=auto;html=1;exitX=0.5;exitY=0;exitDx=0;exitDy=0;entryX=0.5;entryY=1;entryDx=0;entryDy=0;endArrow=none;endFill=0;strokeColor=#000000;movable=1;resizable=1;rotatable=1;deletable=1;editable=1;locked=0;connectable=1;" parent="1" source="W5SD1ygnRIAWHCPiCztK-16" target="W5SD1ygnRIAWHCPiCztK-34" edge="1">
          <mxGeometry relative="1" as="geometry">
            <Array as="points">
              <mxPoint x="456.5" y="391" />
            </Array>
            <mxPoint x="457.37" y="359" as="sourcePoint" />
            <mxPoint x="457.37" y="392" as="targetPoint" />
          </mxGeometry>
        </mxCell>
        <mxCell id="W5SD1ygnRIAWHCPiCztK-34" value="" style="fontStyle=0;labelPosition=right;verticalLabelPosition=middle;align=left;verticalAlign=middle;spacingLeft=2;fillColor=#1BA1E2;strokeColor=#030303;movable=1;resizable=1;rotatable=1;deletable=1;editable=1;locked=0;connectable=1;" parent="1" vertex="1">
          <mxGeometry x="452" y="381" width="10" height="10" as="geometry" />
        </mxCell>
        <mxCell id="W5SD1ygnRIAWHCPiCztK-35" value="" style="ellipse;whiteSpace=wrap;html=1;align=center;aspect=fixed;fillColor=none;strokeColor=none;resizable=1;perimeter=centerPerimeter;rotatable=1;allowArrows=0;points=[];outlineConnect=1;movable=1;deletable=1;editable=1;locked=0;connectable=1;" parent="1" vertex="1">
          <mxGeometry x="439" y="369" width="10" height="10" as="geometry" />
        </mxCell>
        <mxCell id="W5SD1ygnRIAWHCPiCztK-36" value="«component»&lt;br&gt;&lt;b&gt;GDPR&lt;/b&gt;" style="html=1;dropTarget=0;whiteSpace=wrap;fillColor=#1ba1e2;fontColor=#ffffff;strokeColor=#000000;movable=1;resizable=1;rotatable=1;deletable=1;editable=1;locked=0;connectable=1;" parent="1" vertex="1">
          <mxGeometry x="401.75" y="764" width="150" height="70" as="geometry" />
        </mxCell>
        <mxCell id="W5SD1ygnRIAWHCPiCztK-37" value="" style="shape=module;jettyWidth=8;jettyHeight=4;fillColor=#1ba1e2;fontColor=#ffffff;strokeColor=#006EAF;movable=1;resizable=1;rotatable=1;deletable=1;editable=1;locked=0;connectable=1;" parent="W5SD1ygnRIAWHCPiCztK-36" vertex="1">
          <mxGeometry x="1" width="20" height="20" relative="1" as="geometry">
            <mxPoint x="-27" y="7" as="offset" />
          </mxGeometry>
        </mxCell>
        <mxCell id="W5SD1ygnRIAWHCPiCztK-38" value="&lt;b&gt;&lt;font style=&quot;font-size: 9px;&quot;&gt;Public Email&lt;/font&gt;&lt;/b&gt;&lt;div&gt;&lt;b style=&quot;background-color: initial;&quot;&gt;&lt;font style=&quot;font-size: 9px;&quot;&gt;API&lt;/font&gt;&lt;/b&gt;&lt;/div&gt;" style="edgeLabel;html=1;align=center;verticalAlign=middle;resizable=1;points=[];labelBackgroundColor=none;movable=1;rotatable=1;deletable=1;editable=1;locked=0;connectable=1;" parent="1" vertex="1" connectable="0">
          <mxGeometry x="280.00274094513907" y="405.00296169518094" as="geometry">
            <mxPoint x="174" y="-50" as="offset" />
          </mxGeometry>
        </mxCell>
        <mxCell id="W5SD1ygnRIAWHCPiCztK-39" style="edgeStyle=orthogonalEdgeStyle;rounded=0;orthogonalLoop=1;jettySize=auto;html=1;exitX=0.5;exitY=1;exitDx=0;exitDy=0;entryX=0.5;entryY=0;entryDx=0;entryDy=0;strokeColor=#000000;endArrow=none;endFill=0;movable=1;resizable=1;rotatable=1;deletable=1;editable=1;locked=0;connectable=1;" parent="1" source="W5SD1ygnRIAWHCPiCztK-40" target="W5SD1ygnRIAWHCPiCztK-15" edge="1">
          <mxGeometry relative="1" as="geometry">
            <Array as="points">
              <mxPoint x="564.5" y="351.5" />
              <mxPoint x="564.5" y="437.5" />
            </Array>
          </mxGeometry>
        </mxCell>
        <mxCell id="W5SD1ygnRIAWHCPiCztK-40" value="" style="rounded=0;whiteSpace=wrap;html=1;fillColor=#1ba1e2;fontColor=#ffffff;strokeColor=#000000;movable=1;resizable=1;rotatable=1;deletable=1;editable=1;locked=0;connectable=1;" parent="1" vertex="1">
          <mxGeometry x="557" y="382" width="15" height="10" as="geometry" />
        </mxCell>
        <mxCell id="W5SD1ygnRIAWHCPiCztK-41" value="" style="rounded=0;orthogonalLoop=1;jettySize=auto;html=1;endArrow=halfCircle;endFill=0;endSize=6;strokeWidth=1;sketch=0;fontSize=12;curved=1;exitX=0.5;exitY=0;exitDx=0;exitDy=0;fillColor=#030303;strokeColor=#030303;movable=1;resizable=1;rotatable=1;deletable=1;editable=1;locked=0;connectable=1;" parent="1" source="W5SD1ygnRIAWHCPiCztK-40" edge="1">
          <mxGeometry relative="1" as="geometry">
            <mxPoint x="564.5" y="385" as="sourcePoint" />
            <mxPoint x="565" y="323" as="targetPoint" />
            <Array as="points" />
          </mxGeometry>
        </mxCell>
        <mxCell id="W5SD1ygnRIAWHCPiCztK-42" value="&lt;font style=&quot;font-size: 9px;&quot;&gt;Persistence&lt;/font&gt;&lt;div&gt;&lt;font style=&quot;font-size: 9px;&quot;&gt;API&lt;/font&gt;&lt;/div&gt;" style="edgeLabel;html=1;align=center;verticalAlign=middle;resizable=1;points=[];labelBackgroundColor=none;fontStyle=1;movable=1;rotatable=1;deletable=1;editable=1;locked=0;connectable=1;" parent="1" vertex="1" connectable="0">
          <mxGeometry x="563.5" y="355.9988888888888" as="geometry" />
        </mxCell>
        <mxCell id="W5SD1ygnRIAWHCPiCztK-43" style="edgeStyle=orthogonalEdgeStyle;rounded=0;orthogonalLoop=1;jettySize=auto;html=1;entryX=0.5;entryY=0;entryDx=0;entryDy=0;endArrow=none;endFill=0;strokeColor=#000000;exitX=0.5;exitY=1;exitDx=0;exitDy=0;movable=1;resizable=1;rotatable=1;deletable=1;editable=1;locked=0;connectable=1;" parent="1" target="W5SD1ygnRIAWHCPiCztK-27" edge="1">
          <mxGeometry relative="1" as="geometry">
            <Array as="points">
              <mxPoint x="279.5" y="331" />
            </Array>
            <mxPoint x="279.33000000000004" y="331" as="sourcePoint" />
            <mxPoint x="279.33000000000004" y="381" as="targetPoint" />
          </mxGeometry>
        </mxCell>
        <mxCell id="W5SD1ygnRIAWHCPiCztK-44" value="&amp;nbsp;UI" style="edgeLabel;html=1;align=center;verticalAlign=middle;resizable=1;points=[];labelBackgroundColor=none;fontStyle=1;movable=1;rotatable=1;deletable=1;editable=1;locked=0;connectable=1;" parent="W5SD1ygnRIAWHCPiCztK-43" vertex="1" connectable="0">
          <mxGeometry x="-0.3286" y="-1" relative="1" as="geometry">
            <mxPoint x="-2" y="5" as="offset" />
          </mxGeometry>
        </mxCell>
        <mxCell id="W5SD1ygnRIAWHCPiCztK-45" value="" style="ellipse;whiteSpace=wrap;html=1;fillColor=#1ba1e2;fontColor=#ffffff;strokeColor=#006EAF;movable=1;resizable=1;rotatable=1;deletable=1;editable=1;locked=0;connectable=1;" parent="1" vertex="1">
          <mxGeometry x="269.5" y="311" width="20" height="20" as="geometry" />
        </mxCell>
        <mxCell id="W5SD1ygnRIAWHCPiCztK-46" value="" style="rounded=0;orthogonalLoop=1;jettySize=auto;html=1;endArrow=halfCircle;endFill=0;endSize=6;strokeWidth=1;sketch=0;strokeColor=#030303;exitX=0.5;exitY=1;exitDx=0;exitDy=0;movable=1;resizable=1;rotatable=1;deletable=1;editable=1;locked=0;connectable=1;" parent="1" source="W5SD1ygnRIAWHCPiCztK-32" edge="1">
          <mxGeometry relative="1" as="geometry">
            <mxPoint x="273.5" y="542" as="sourcePoint" />
            <Array as="points">
              <mxPoint x="278.5" y="609" />
              <mxPoint x="434.5" y="609" />
            </Array>
            <mxPoint x="448.5" y="617" as="targetPoint" />
          </mxGeometry>
        </mxCell>
        <mxCell id="W5SD1ygnRIAWHCPiCztK-48" value="" style="rounded=0;orthogonalLoop=1;jettySize=auto;html=1;endArrow=halfCircle;endFill=0;endSize=6;strokeWidth=1;sketch=0;strokeColor=#030303;exitX=0.5;exitY=0;exitDx=0;exitDy=0;movable=1;resizable=1;rotatable=1;deletable=1;editable=1;locked=0;connectable=1;" parent="1" source="W5SD1ygnRIAWHCPiCztK-49" edge="1">
          <mxGeometry relative="1" as="geometry">
            <mxPoint x="454" y="755" as="sourcePoint" />
            <Array as="points">
              <mxPoint x="454.5" y="683" />
            </Array>
            <mxPoint x="454.5" y="625" as="targetPoint" />
          </mxGeometry>
        </mxCell>
        <mxCell id="W5SD1ygnRIAWHCPiCztK-49" value="" style="rounded=0;whiteSpace=wrap;html=1;fillColor=#1ba1e2;fontColor=#ffffff;strokeColor=#000000;rotation=0;movable=1;resizable=1;rotatable=1;deletable=1;editable=1;locked=0;connectable=1;" parent="1" vertex="1">
          <mxGeometry x="447.75" y="759" width="12.5" height="10" as="geometry" />
        </mxCell>
        <mxCell id="W5SD1ygnRIAWHCPiCztK-50" value="«component»&lt;br&gt;&lt;b&gt;MDPatientManagement&lt;/b&gt;" style="html=1;dropTarget=0;whiteSpace=wrap;fillColor=#1ba1e2;fontColor=#ffffff;strokeColor=#000000;movable=1;resizable=1;rotatable=1;deletable=1;editable=1;locked=0;connectable=1;" parent="1" vertex="1">
          <mxGeometry x="204.25" y="679" width="150" height="70" as="geometry" />
        </mxCell>
        <mxCell id="W5SD1ygnRIAWHCPiCztK-51" value="" style="shape=module;jettyWidth=8;jettyHeight=4;fillColor=#1ba1e2;fontColor=#ffffff;strokeColor=#006EAF;movable=1;resizable=1;rotatable=1;deletable=1;editable=1;locked=0;connectable=1;" parent="W5SD1ygnRIAWHCPiCztK-50" vertex="1">
          <mxGeometry x="1" width="20" height="20" relative="1" as="geometry">
            <mxPoint x="-27" y="7" as="offset" />
          </mxGeometry>
        </mxCell>
        <mxCell id="W5SD1ygnRIAWHCPiCztK-52" value="" style="rounded=0;orthogonalLoop=1;jettySize=auto;html=1;endArrow=halfCircle;endFill=0;endSize=6;strokeWidth=1;sketch=0;exitX=0.5;exitY=0;exitDx=0;exitDy=0;strokeColor=#030303;movable=1;resizable=1;rotatable=1;deletable=1;editable=1;locked=0;connectable=1;" parent="1" source="W5SD1ygnRIAWHCPiCztK-18" target="W5SD1ygnRIAWHCPiCztK-54" edge="1">
          <mxGeometry relative="1" as="geometry">
            <mxPoint x="458.25" y="549" as="sourcePoint" />
            <Array as="points">
              <mxPoint x="624.5" y="505" />
              <mxPoint x="625.25" y="549" />
            </Array>
          </mxGeometry>
        </mxCell>
        <mxCell id="W5SD1ygnRIAWHCPiCztK-53" value="" style="rounded=0;orthogonalLoop=1;jettySize=auto;html=1;endArrow=oval;endFill=0;sketch=0;sourcePerimeterSpacing=0;targetPerimeterSpacing=0;endSize=10;exitX=1;exitY=0.5;exitDx=0;exitDy=0;strokeColor=#030303;movable=1;resizable=1;rotatable=1;deletable=1;editable=1;locked=0;connectable=1;" parent="1" source="W5SD1ygnRIAWHCPiCztK-9" target="W5SD1ygnRIAWHCPiCztK-54" edge="1">
          <mxGeometry relative="1" as="geometry">
            <mxPoint x="439.25" y="569" as="sourcePoint" />
          </mxGeometry>
        </mxCell>
        <mxCell id="W5SD1ygnRIAWHCPiCztK-54" value="" style="ellipse;whiteSpace=wrap;html=1;align=center;aspect=fixed;fillColor=none;strokeColor=none;resizable=1;perimeter=centerPerimeter;rotatable=1;allowArrows=0;points=[];outlineConnect=1;movable=1;deletable=1;editable=1;locked=0;connectable=1;" parent="1" vertex="1">
          <mxGeometry x="620.25" y="581.5" width="10" height="10" as="geometry" />
        </mxCell>
        <mxCell id="W5SD1ygnRIAWHCPiCztK-55" value="&lt;font style=&quot;font-size: 8px;&quot;&gt;Planning&lt;/font&gt;&lt;div&gt;&lt;font style=&quot;font-size: 8px;&quot;&gt;API&lt;/font&gt;&lt;/div&gt;" style="text;align=center;fontStyle=1;verticalAlign=middle;spacingLeft=3;spacingRight=3;strokeColor=none;rotatable=1;points=[[0,0.5],[1,0.5]];portConstraint=eastwest;html=1;movable=1;resizable=1;deletable=1;editable=1;locked=0;connectable=1;" parent="1" vertex="1">
          <mxGeometry x="585.25" y="591.5" width="80" height="26" as="geometry" />
        </mxCell>
        <mxCell id="W5SD1ygnRIAWHCPiCztK-56" value="«component»&lt;br&gt;&lt;b&gt;BCP&lt;/b&gt;" style="html=1;dropTarget=0;whiteSpace=wrap;fillColor=#1ba1e2;fontColor=#ffffff;strokeColor=#000000;movable=1;resizable=1;rotatable=1;deletable=1;editable=1;locked=0;connectable=1;" parent="1" vertex="1">
          <mxGeometry x="203.5" y="764" width="150" height="70" as="geometry" />
        </mxCell>
        <mxCell id="W5SD1ygnRIAWHCPiCztK-57" value="" style="shape=module;jettyWidth=8;jettyHeight=4;fillColor=#1ba1e2;fontColor=#ffffff;strokeColor=#006EAF;movable=1;resizable=1;rotatable=1;deletable=1;editable=1;locked=0;connectable=1;" parent="W5SD1ygnRIAWHCPiCztK-56" vertex="1">
          <mxGeometry x="1" width="20" height="20" relative="1" as="geometry">
            <mxPoint x="-27" y="7" as="offset" />
          </mxGeometry>
        </mxCell>
        <mxCell id="W5SD1ygnRIAWHCPiCztK-58" value="" style="rounded=0;whiteSpace=wrap;html=1;fillColor=#1ba1e2;fontColor=#ffffff;strokeColor=#000000;rotation=-90;movable=1;resizable=1;rotatable=1;deletable=1;editable=1;locked=0;connectable=1;" parent="1" vertex="1">
          <mxGeometry x="219.25" y="671.5" width="10" height="15" as="geometry" />
        </mxCell>
        <mxCell id="W5SD1ygnRIAWHCPiCztK-59" value="" style="rounded=0;orthogonalLoop=1;jettySize=auto;html=1;endArrow=oval;endFill=0;sketch=0;sourcePerimeterSpacing=0;targetPerimeterSpacing=0;endSize=10;exitX=1;exitY=0.5;exitDx=0;exitDy=0;strokeColor=#030303;movable=1;resizable=1;rotatable=1;deletable=1;editable=1;locked=0;connectable=1;" parent="1" source="W5SD1ygnRIAWHCPiCztK-58" target="W5SD1ygnRIAWHCPiCztK-60" edge="1">
          <mxGeometry relative="1" as="geometry">
            <mxPoint x="38.25" y="556.5" as="sourcePoint" />
          </mxGeometry>
        </mxCell>
        <mxCell id="W5SD1ygnRIAWHCPiCztK-60" value="" style="ellipse;whiteSpace=wrap;html=1;align=center;aspect=fixed;fillColor=none;strokeColor=none;resizable=1;perimeter=centerPerimeter;rotatable=1;allowArrows=0;points=[];outlineConnect=1;movable=1;deletable=1;editable=1;locked=0;connectable=1;" parent="1" vertex="1">
          <mxGeometry x="219.25" y="595.5" width="10" height="10" as="geometry" />
        </mxCell>
        <mxCell id="W5SD1ygnRIAWHCPiCztK-61" value="&lt;font style=&quot;font-size: 8px;&quot;&gt;&lt;b style=&quot;color: rgb(255, 255, 255); text-wrap: wrap;&quot;&gt;MDPatientManagement&lt;/b&gt;&lt;/font&gt;&lt;div&gt;&lt;font style=&quot;font-size: 8px;&quot;&gt;API&lt;/font&gt;&lt;/div&gt;" style="text;align=center;fontStyle=1;verticalAlign=middle;spacingLeft=3;spacingRight=3;strokeColor=none;rotatable=1;points=[[0,0.5],[1,0.5]];portConstraint=eastwest;html=1;movable=1;resizable=1;deletable=1;editable=1;locked=0;connectable=1;" parent="1" vertex="1">
          <mxGeometry x="184.25" y="611" width="80" height="26" as="geometry" />
        </mxCell>
        <mxCell id="W5SD1ygnRIAWHCPiCztK-62" value="" style="rounded=0;orthogonalLoop=1;jettySize=auto;html=1;endArrow=halfCircle;endFill=0;endSize=6;strokeWidth=1;sketch=0;strokeColor=#030303;exitX=0.5;exitY=1;exitDx=0;exitDy=0;movable=1;resizable=1;rotatable=1;deletable=1;editable=1;locked=0;connectable=1;" parent="1" edge="1">
          <mxGeometry relative="1" as="geometry">
            <mxPoint x="204.75" y="505" as="sourcePoint" />
            <Array as="points">
              <mxPoint x="180.5" y="505" />
              <mxPoint x="180.5" y="600" />
            </Array>
            <mxPoint x="222.25" y="600.5" as="targetPoint" />
          </mxGeometry>
        </mxCell>
        <mxCell id="W5SD1ygnRIAWHCPiCztK-63" value="" style="rounded=0;orthogonalLoop=1;jettySize=auto;html=1;endArrow=oval;endFill=0;sketch=0;sourcePerimeterSpacing=0;targetPerimeterSpacing=0;endSize=10;strokeColor=#030303;movable=1;resizable=1;rotatable=1;deletable=1;editable=1;locked=0;connectable=1;" parent="1" edge="1">
          <mxGeometry relative="1" as="geometry">
            <mxPoint x="454.5" y="545" as="sourcePoint" />
            <mxPoint x="454.5" y="619" as="targetPoint" />
          </mxGeometry>
        </mxCell>
        <mxCell id="W5SD1ygnRIAWHCPiCztK-64" value="&lt;div&gt;&lt;font style=&quot;font-size: 8px;&quot;&gt;MDBackoffice&lt;/font&gt;&lt;/div&gt;&lt;div&gt;&lt;font style=&quot;font-size: 8px;&quot;&gt;API&lt;/font&gt;&lt;/div&gt;" style="text;align=center;fontStyle=1;verticalAlign=middle;spacingLeft=3;spacingRight=3;strokeColor=none;rotatable=1;points=[[0,0.5],[1,0.5]];portConstraint=eastwest;html=1;movable=1;resizable=1;deletable=1;editable=1;locked=0;connectable=1;" parent="1" vertex="1">
          <mxGeometry x="432.5" y="574" width="46" height="26" as="geometry" />
        </mxCell>
        <mxCell id="W5SD1ygnRIAWHCPiCztK-65" value="" style="rounded=0;orthogonalLoop=1;jettySize=auto;html=1;endArrow=halfCircle;endFill=0;endSize=6;strokeWidth=1;sketch=0;strokeColor=#030303;entryX=1.446;entryY=0.671;entryDx=0;entryDy=0;entryPerimeter=0;exitX=0.5;exitY=1;exitDx=0;exitDy=0;movable=1;resizable=1;rotatable=1;deletable=1;editable=1;locked=0;connectable=1;" parent="1" edge="1">
          <mxGeometry relative="1" as="geometry">
            <mxPoint x="425.75" y="505" as="sourcePoint" />
            <Array as="points">
              <mxPoint x="396.44" y="505" />
              <mxPoint x="396.44" y="599" />
            </Array>
            <mxPoint x="226.19" y="600.5" as="targetPoint" />
          </mxGeometry>
        </mxCell>
        <mxCell id="W5SD1ygnRIAWHCPiCztK-66" value="" style="rounded=0;whiteSpace=wrap;html=1;fillColor=#1ba1e2;fontColor=#ffffff;strokeColor=#000000;rotation=90;movable=1;resizable=1;rotatable=1;deletable=1;editable=1;locked=0;connectable=1;" parent="1" vertex="1">
          <mxGeometry x="197.5" y="499" width="12.5" height="10" as="geometry" />
        </mxCell>
        <mxCell id="W5SD1ygnRIAWHCPiCztK-67" value="&lt;font style=&quot;font-size: 9px;&quot;&gt;Public Auth&lt;/font&gt;&lt;div&gt;&lt;font style=&quot;font-size: 9px;&quot;&gt;API&lt;/font&gt;&lt;/div&gt;" style="edgeLabel;html=1;align=center;verticalAlign=middle;resizable=1;points=[];labelBackgroundColor=none;fontStyle=1;movable=1;rotatable=1;deletable=1;editable=1;locked=0;connectable=1;" parent="1" vertex="1" connectable="0">
          <mxGeometry x="507.5" y="353.9988888888888" as="geometry">
            <mxPoint x="2" y="2" as="offset" />
          </mxGeometry>
        </mxCell>
        <mxCell id="W5SD1ygnRIAWHCPiCztK-68" value="Healthcare System" style="shape=folder;fontStyle=1;spacingTop=3;tabWidth=40;tabHeight=14;tabPosition=left;html=1;whiteSpace=wrap;labelPosition=center;verticalLabelPosition=top;align=center;verticalAlign=bottom;labelBackgroundColor=none;labelBorderColor=none;spacing=-32;fillColor=#1BA1E2;strokeColor=#030303;" parent="1" vertex="1">
          <mxGeometry x="960" y="440" width="540" height="390" as="geometry" />
        </mxCell>
        <mxCell id="W5SD1ygnRIAWHCPiCztK-69" value="MDBackoffice" style="shape=folder;fontStyle=1;spacingTop=10;tabWidth=40;tabHeight=14;tabPosition=left;html=1;whiteSpace=wrap;fillColor=#1BA1E2;strokeColor=#030303;" parent="1" vertex="1">
          <mxGeometry x="1000" y="490" width="140" height="80" as="geometry" />
        </mxCell>
        <mxCell id="W5SD1ygnRIAWHCPiCztK-70" value="Planning" style="shape=folder;fontStyle=1;spacingTop=10;tabWidth=40;tabHeight=14;tabPosition=left;html=1;whiteSpace=wrap;fillColor=#1BA1E2;strokeColor=#030303;" parent="1" vertex="1">
          <mxGeometry x="1300" y="490" width="140" height="80" as="geometry" />
        </mxCell>
        <mxCell id="W5SD1ygnRIAWHCPiCztK-71" value="Visualization" style="shape=folder;fontStyle=1;spacingTop=10;tabWidth=40;tabHeight=14;tabPosition=left;html=1;whiteSpace=wrap;fillColor=#1BA1E2;strokeColor=#030303;" parent="1" vertex="1">
          <mxGeometry x="1000" y="640" width="140" height="80" as="geometry" />
        </mxCell>
        <mxCell id="W5SD1ygnRIAWHCPiCztK-72" value="" style="html=1;verticalAlign=bottom;endArrow=open;dashed=1;endSize=8;curved=0;rounded=0;entryX=-0.001;entryY=0.545;entryDx=0;entryDy=0;entryPerimeter=0;exitX=0.994;exitY=0.55;exitDx=0;exitDy=0;exitPerimeter=0;strokeColor=#030303;" parent="1" source="W5SD1ygnRIAWHCPiCztK-69" target="W5SD1ygnRIAWHCPiCztK-70" edge="1">
          <mxGeometry relative="1" as="geometry">
            <mxPoint x="1600" y="600" as="sourcePoint" />
            <mxPoint x="1260" y="600" as="targetPoint" />
          </mxGeometry>
        </mxCell>
        <mxCell id="W5SD1ygnRIAWHCPiCztK-73" value="" style="html=1;verticalAlign=bottom;endArrow=open;dashed=1;endSize=8;curved=0;rounded=0;entryX=0.5;entryY=1;entryDx=0;entryDy=0;entryPerimeter=0;exitX=0.505;exitY=0.172;exitDx=0;exitDy=0;exitPerimeter=0;strokeColor=#030303;" parent="1" source="W5SD1ygnRIAWHCPiCztK-71" target="W5SD1ygnRIAWHCPiCztK-69" edge="1">
          <mxGeometry relative="1" as="geometry">
            <mxPoint x="1330" y="547" as="sourcePoint" />
            <mxPoint x="1150" y="547" as="targetPoint" />
          </mxGeometry>
        </mxCell>
        <mxCell id="W5SD1ygnRIAWHCPiCztK-74" value="BCP" style="shape=folder;fontStyle=1;spacingTop=10;tabWidth=40;tabHeight=14;tabPosition=left;html=1;whiteSpace=wrap;fillColor=#1BA1E2;strokeColor=#030303;" parent="1" vertex="1">
          <mxGeometry x="1160" y="730" width="140" height="80" as="geometry" />
        </mxCell>
        <mxCell id="W5SD1ygnRIAWHCPiCztK-75" value="MDPatientManagement" style="shape=folder;fontStyle=1;spacingTop=10;tabWidth=40;tabHeight=14;tabPosition=left;html=1;whiteSpace=wrap;fillColor=#1BA1E2;strokeColor=#030303;" parent="1" vertex="1">
          <mxGeometry x="1304" y="600" width="140" height="80" as="geometry" />
        </mxCell>
        <mxCell id="W5SD1ygnRIAWHCPiCztK-76" value="" style="html=1;verticalAlign=bottom;endArrow=open;dashed=1;endSize=8;curved=0;rounded=0;entryX=0.5;entryY=1;entryDx=0;entryDy=0;entryPerimeter=0;exitX=1.008;exitY=0.682;exitDx=0;exitDy=0;exitPerimeter=0;strokeColor=#030303;" parent="1" target="W5SD1ygnRIAWHCPiCztK-75" edge="1">
          <mxGeometry relative="1" as="geometry">
            <mxPoint x="1140" y="710" as="sourcePoint" />
            <mxPoint x="1303.16" y="670" as="targetPoint" />
            <Array as="points">
              <mxPoint x="1374" y="710" />
            </Array>
          </mxGeometry>
        </mxCell>
        <mxCell id="W5SD1ygnRIAWHCPiCztK-77" value="" style="html=1;verticalAlign=bottom;endArrow=open;dashed=1;endSize=8;curved=0;rounded=0;entryX=0.004;entryY=0.486;entryDx=0;entryDy=0;entryPerimeter=0;exitX=0.75;exitY=1;exitDx=0;exitDy=0;exitPerimeter=0;strokeColor=#030303;" parent="1" source="W5SD1ygnRIAWHCPiCztK-69" target="W5SD1ygnRIAWHCPiCztK-75" edge="1">
          <mxGeometry relative="1" as="geometry">
            <mxPoint x="1151" y="705" as="sourcePoint" />
            <mxPoint x="1314" y="705" as="targetPoint" />
            <Array as="points">
              <mxPoint x="1105" y="638" />
            </Array>
          </mxGeometry>
        </mxCell>
        <mxCell id="W5SD1ygnRIAWHCPiCztK-78" value="&amp;lt;&amp;lt;manifest&amp;gt;&amp;gt;" style="endArrow=open;startArrow=none;endFill=0;startFill=0;endSize=8;html=1;verticalAlign=bottom;dashed=1;labelBackgroundColor=none;rounded=0;exitX=0;exitY=0;exitDx=0;exitDy=47;exitPerimeter=0;entryX=1;entryY=0.75;entryDx=0;entryDy=0;" parent="1" source="W5SD1ygnRIAWHCPiCztK-69" target="W5SD1ygnRIAWHCPiCztK-13" edge="1">
          <mxGeometry width="160" relative="1" as="geometry">
            <mxPoint x="590" y="580" as="sourcePoint" />
            <mxPoint x="800" y="310" as="targetPoint" />
          </mxGeometry>
        </mxCell>
        <mxCell id="W5SD1ygnRIAWHCPiCztK-79" value="&amp;lt;&amp;lt;manifest&amp;gt;&amp;gt;" style="endArrow=open;startArrow=none;endFill=0;startFill=0;endSize=8;html=1;verticalAlign=bottom;dashed=1;labelBackgroundColor=none;rounded=0;exitX=0;exitY=0;exitDx=0;exitDy=63.5;exitPerimeter=0;entryX=1;entryY=0.5;entryDx=0;entryDy=0;" parent="1" source="W5SD1ygnRIAWHCPiCztK-70" target="W5SD1ygnRIAWHCPiCztK-4" edge="1">
          <mxGeometry width="160" relative="1" as="geometry">
            <mxPoint x="1029" y="830" as="sourcePoint" />
            <mxPoint x="610" y="816" as="targetPoint" />
          </mxGeometry>
        </mxCell>
        <mxCell id="W5SD1ygnRIAWHCPiCztK-80" value="&amp;lt;&amp;lt;manifest&amp;gt;&amp;gt;" style="endArrow=open;startArrow=none;endFill=0;startFill=0;endSize=8;html=1;verticalAlign=bottom;dashed=1;labelBackgroundColor=none;rounded=0;exitX=0;exitY=0;exitDx=0;exitDy=63.5;exitPerimeter=0;entryX=0.36;entryY=0.994;entryDx=0;entryDy=0;entryPerimeter=0;" parent="1" source="W5SD1ygnRIAWHCPiCztK-74" target="W5SD1ygnRIAWHCPiCztK-56" edge="1">
          <mxGeometry width="160" relative="1" as="geometry">
            <mxPoint x="1160" y="890" as="sourcePoint" />
            <mxPoint x="522" y="1016" as="targetPoint" />
            <Array as="points">
              <mxPoint x="430" y="940" />
            </Array>
          </mxGeometry>
        </mxCell>
        <mxCell id="W5SD1ygnRIAWHCPiCztK-81" value="&amp;lt;&amp;lt;manifest&amp;gt;&amp;gt;" style="endArrow=open;startArrow=none;endFill=0;startFill=0;endSize=8;html=1;verticalAlign=bottom;dashed=1;labelBackgroundColor=none;rounded=0;exitX=0.113;exitY=1.047;exitDx=0;exitDy=0;exitPerimeter=0;entryX=1;entryY=0.75;entryDx=0;entryDy=0;" parent="1" source="W5SD1ygnRIAWHCPiCztK-75" target="W5SD1ygnRIAWHCPiCztK-50" edge="1">
          <mxGeometry width="160" relative="1" as="geometry">
            <mxPoint x="1226.5" y="671.5" as="sourcePoint" />
            <mxPoint x="588.5" y="797.5" as="targetPoint" />
            <Array as="points">
              <mxPoint x="810" y="790" />
            </Array>
          </mxGeometry>
        </mxCell>
        <mxCell id="W5SD1ygnRIAWHCPiCztK-82" value="&amp;lt;&amp;lt;manifest&amp;gt;&amp;gt;" style="endArrow=open;startArrow=none;endFill=0;startFill=0;endSize=8;html=1;verticalAlign=bottom;dashed=1;labelBackgroundColor=none;rounded=0;exitX=0;exitY=0;exitDx=0;exitDy=47;exitPerimeter=0;entryX=0.75;entryY=1;entryDx=0;entryDy=0;" parent="1" source="W5SD1ygnRIAWHCPiCztK-71" target="W5SD1ygnRIAWHCPiCztK-29" edge="1">
          <mxGeometry width="160" relative="1" as="geometry">
            <mxPoint x="1330" y="694" as="sourcePoint" />
            <mxPoint x="364" y="742" as="targetPoint" />
            <Array as="points">
              <mxPoint x="930" y="730" />
              <mxPoint x="460" y="740" />
            </Array>
          </mxGeometry>
        </mxCell>
      </root>
    </mxGraphModel>
  </diagram>
</mxfile>
